<svg width="512" height="512" viewBox="0 0 512 512" fill="none" xmlns="http://www.w3.org/2000/svg">
  <rect width="512" height="512" rx="128" fill="#1B4332"/>
  <path d="M256 120C180.89 120 120 180.89 120 256C120 331.11 180.89 392 256 392C331.11 392 392 331.11 392 256C392 180.89 331.11 120 256 120ZM256 352C203.04 352 160 308.96 160 256C160 203.04 203.04 160 256 160C308.96 160 352 203.04 352 256C352 308.96 308.04 352 256 352Z" fill="white" fill-opacity="0.2"/>
  <path d="M256 160C203.04 160 160 203.04 160 256C160 308.96 203.04 352 256 352C308.96 352 352 308.96 352 256C352 203.04 308.96 160 256 160ZM230 300L190 260L204 246L230 272L308 194L322 208L230 300Z" fill="#52B788"/>
  <circle cx="256" cy="256" r="60" stroke="white" stroke-width="12" stroke-linecap="round" stroke-dasharray="20 10"/>
</svg>
